# AST/ASF file generated using VICON BodyLanguage
# -----------------------------------------------
:version 1.10
:name VICON
:units
  mass 1.0
  length 0.45
  angle deg
:documentation
   .ast/.asf automatically generated from VICON data using
   VICON BodyBuilder and BodyLanguage model FoxedUp or BRILLIANT.MOD
:root
   order TX TY TZ RX RY RZ
   axis XYZ
   position 0 0 0  
   orientation 0 0 0 
:bonedata
  begin
     id 1 
     name lhipjoint
     direction 0.611804 -0.747784 0.257906 
     length 2.29243 
     axis 0 0 0  XYZ
  end
  begin
     id 2 
     name lfemur
     direction 0.34202 -0.939693 0  
     length 7.31159  
     axis 0 0 20  XYZ
    dof rx ry rz
    limits (-160.0 20.0)
           (-70.0 70.0)
           (-60.0 70.0)
  end
  begin
     id 3 
     name ltibia
     direction 0.34202 -0.939693 0   
     length 7.33391   
     axis 0 0 20   XYZ
    dof rx
    limits (-10.0 170.0)
  end
  begin
     id 4 
     name lfoot
     direction 0.122263 -0.335914 0.933924   
     length 1.76083   
     axis -90 7.62852e-016 20   XYZ
    dof rx rz
    limits (-45.0 90.0)
           (-70.0 20.0)
  end
  begin
     id 5 
     name ltoes
     direction 1.53533e-011 -4.2177e-011 1   
     length 0.879206   
     axis -90 7.62852e-016 20   XYZ
    dof rx
    limits (-90.0 20.0)
  end
  begin
     id 6 
     name rhipjoint
     direction -0.646469 -0.721248 0.248754   
     length 2.37677  
     axis 0 0 0  XYZ 
  end
  begin
     id 7 
     name rfemur
     direction -0.34202 -0.939693 0   
     length 7.18623   
     axis 0 0 -20   XYZ
    dof rx ry rz
    limits (-160.0 20.0)
           (-70.0 70.0)
           (-70.0 60.0)
  end
  begin
     id 8 
     name rtibia
     direction -0.34202 -0.939693 0   
     length 7.36567   
     axis 0 0 -20   XYZ
    dof rx
    limits (-10.0 170.0)
 end
 begin
     id 9 
     name rfoot
     direction -0.126681 -0.348054 0.928876   
     length 1.71902  
     axis -90 -7.62852e-016 -20   XYZ
    dof rx rz
    limits (-45.0 90.0)
           (-20.0 70.0)
  end
  begin
     id 10 
     name rtoes
     direction -1.53551e-011 -4.21898e-011 1   
     length 0.857792   
     axis -90 -7.62852e-016 -20   XYZ
    dof rx
    limits (-90.0 20.0)
  end
  begin
     id 11 
     name lowerback
     direction 0.0106509 0.999778 0.0181844   
     length 2.07668   
     axis 0 0 0   XYZ
    dof rx ry rz
    limits (-20.0 45.0)
           (-30.0 30.0)
           (-30.0 30.0)
  end
  begin
     id 12 
     name upperback
     direction -0.00456018 0.999989 -0.000590935   
     length 2.08011   
     axis 0 0 0   XYZ
    dof rx ry rz
    limits (-20.0 45.0)
           (-30.0 30.0)
           (-30.0 30.0)
  end
  begin
     id 13 
     name thorax
     direction -0.00910382 0.999916 -0.00923765   
     length 2.07397   
     axis 0 0 0   XYZ
    dof rx ry rz
    limits (-20.0 45.0)
           (-30.0 30.0)
           (-30.0 30.0)
  end
  begin
     id 14 
     name lowerneck
     direction 0.00171967 0.99778 0.0665733   
     length 1.67556   
     axis 0 0 0   XYZ
    dof rx ry rz
    limits (-20.0 45.0)
           (-30.0 30.0)
           (-30.0 30.0)
  end
  begin
     id 15 
     name upperneck
     direction -0.0143166 0.991302 -0.130828   
     length 1.68462   
     axis 0 0 0   XYZ
    dof rx ry rz
    limits (-20.0 45.0)
           (-30.0 30.0)
           (-30.0 30.0)
  end
  begin
     id 16
     name head
     direction -0.00606378 0.998665 -0.0512995  
     length 1.69269  
     axis 0 0 0   XYZ
    dof rx ry rz
    limits (-20.0 45.0)
           (-30.0 30.0)
           (-30.0 30.0)
  end
  begin
     id 17 
     name lclavicle
     direction 0.9638 0.179341 0.197297  
     length 4.12888  
     axis 0 0 0   XYZ
    dof ry rz
    limits (-20.0 10.0)
           (0.0 20.0)
  end
  begin
     id 18 
     name lhumerus
     direction 1 -4.48972e-011 -2.47351e-027   
     length 5.01834   
     axis -180 -30 -90   XYZ
    dof rx ry rz
    limits (-60.0 90.0)
           (-90.0 90.0)
           (-90.0 90.0)
  end
  begin
     id 19
     name lradius
     direction 1 -4.48965e-011 1.51591e-026   
     length 3.4869   
     axis -180 -30 -90   XYZ
    dof rx
    limits (-10.0 170.0)
  end
  begin
     id 20
     name lwrist
     direction 1 -4.48957e-011 2.70032e-026   
     length 1.74345   
     axis -1.81515e-014 90 90   XYZ
    dof ry
    limits (-180.0 0.0)
 end
  begin
     id 21 
     name lhand
     direction 1 -4.48951e-011 5.40064e-026   
     length 0.76799   
     axis -3.44607e-014 90 90   XYZ
    dof rx rz
    limits (-90.0 90.0)
           (-45.0 45.0)
  end
  begin
     id 22 
     name lfingers
     direction 1 -4.48971e-011 1.08013e-025   
     length 0.619174   
     axis -6.89214e-014 90 90   XYZ
    dof rx
    limits (0.0 90.0)
  end
  begin
     id 23
     name lthumb
     direction 0.707107 -6.34931e-011 0.707107   
     length 0.889013   
     axis -90 45 2.85299e-015   XYZ
    dof rx rz
    limits (-45.0 45.0)
           (-45.0 45.0)
  end
  begin
     id 24 
     name rclavicle
     direction -0.961409 0.252588 0.109054   
     length 4.04305  
     axis 0 0 0   XYZ 
    dof ry rz
    limits (-10.0 20.0)
           (-20.0 0.0)
  end
  begin
     id 25 
     name rhumerus
     direction -1 -4.4897e-011 1.33872e-017  
     length 4.70164   
     axis -180 30 90   XYZ
    dof rx ry rz
    limits (-90.0 60.0)
           (-90.0 90.0)
           (-90.0 90.0)
  end
  begin
     id 26 
     name rradius
     direction -1 -4.48954e-011 1.83844e-026   
     length 3.49911   
     axis -180 30 90   XYZ
    dof rx
    limits (-10.0 170.0)
  end
  begin
     id 27 
     name rwrist
     direction -1 -4.49008e-011 2.70032e-026   
     length 1.74955   
     axis -1.81515e-014 -90 -90   XYZ
    dof ry
    limits (-180.0 0.0)
  end
  begin
     id 28
     name rhand
     direction -1 -4.48916e-011 5.40064e-026   
     length 0.739335   
     axis -3.44607e-014 -90 -90   XYZ
    dof rx rz
    limits (-90.0 90.0)
           (-45.0 45.0)
  end
  begin
     id 29
     name rfingers
     direction -1 -4.48987e-011 1.08013e-025   
     length 0.596071   
     axis -6.89214e-014 -90 -90   XYZ
    dof rx
    limits (0.0 90.0)
  end
  begin
     id 30
     name rthumb
     direction -0.707107 -6.34935e-011 0.707107   
     length 0.855843   
     axis -90 -45 -2.85299e-015   XYZ
    dof rx rz
    limits (-45.0 45.0)
           (-45.0 45.0)
  end
:hierarchy
  begin
    root lhipjoint rhipjoint lowerback
    lhipjoint lfemur
    lfemur ltibia
    ltibia lfoot
    lfoot ltoes
    rhipjoint rfemur
    rfemur rtibia
    rtibia rfoot
    rfoot rtoes
    lowerback upperback
    upperback thorax
    thorax lowerneck lclavicle rclavicle
    lowerneck upperneck
    upperneck head
    lclavicle lhumerus
    lhumerus lradius
    lradius lwrist
    lwrist lhand lthumb
    lhand lfingers
    rclavicle rhumerus
    rhumerus rradius
    rradius rwrist
    rwrist rhand rthumb
    rhand rfingers
  end

#!OML:ASF I:\salsa\salsa 7_09\Patient 1\Session 1\dancermale.ASF
:FULLY-SPECIFIED
:DEGREES
499
root -0.788891 16.8203 4.62801 224.536 78.69 578.311
lowerback -7.88693 -2.38499 9.51858
upperback -1.21525 -3.94908 2.68937
thorax 2.69764 -1.83477 -2.90155
lowerneck -13.0588 -10.9965 3.5431
upperneck 11.0712 53.467 6.7274
head 211.497 -211.645 -363.594
rclavicle -1.758e-014 4.29375e-014
rhumerus -50.5876 22.3724 -104.861
rradius 96.6596
rwrist 19.5688
rhand -35.1348 13.6184
rfingers 7.12502
rthumb -8.27483 -16.1996
lclavicle -1.758e-014 4.29375e-014
lhumerus -42.9678 -33.5828 116.624
lradius 84.9601
lwrist 20.9102
lhand -11.0034 48.3629
lfingers 7.12502
lthumb 15.0172 797.798
rfemur -25.6983 -8.03301 37.0862
rtibia 34.599
rfoot -21.1809 -9.18028
rtoes 5.42027
lfemur -35.6208 16.7747 -14.0722
ltibia 86.4128
lfoot -2.61661 2.30326
ltoes 8.12335
500
root -0.665054 16.7935 4.60025 229.777 79.9893 583.501
lowerback -7.8709 -1.9429 9.04327
upperback -1.0607 -3.34076 2.54068
thorax 2.94166 -1.52856 -2.74772
lowerneck -13.3293 -10.8828 3.90214
upperneck 11.0662 53.5793 6.82234
head 211.584 -211.657 -363.646
rclavicle -1.72446e-014 -1.17283e-014
rhumerus -48.4871 23.1572 -106.632
rradius 96.1614
rwrist 19.7628
rhand -34.9529 13.6951
rfingers 7.12502
rthumb -8.09931 -16.1297
lclavicle -1.72446e-014 -1.17283e-014
lhumerus -44.5264 -32.3061 115.356
lradius 85.5623
lwrist 20.5367
lhand -11.6397 48.4325
lfingers 7.12502
lthumb 14.4042 797.913
rfemur -25.5993 -7.19559 36.9526
rtibia 35.5015
rfoot -21.4883 -8.73432
rtoes 4.00171
lfemur -38.3951 16.7001 -14.0219
ltibia 87.1568
lfoot -3.30706 3.03892
ltoes 12.6763
501
root -0.556022 16.7831 4.57177 232.766 81.15 587.29
lowerback -6.75919 -1.68922 8.31993
upperback -0.739644 -2.8589 2.30798
thorax 2.73368 -1.30742 -2.51164
lowerneck -13.6655 -10.7828 4.20996
upperneck 11.0304 53.7015 6.88651
head 211.694 -211.793 -363.653
rclavicle -4.69008e-015 1.72943e-014
rhumerus -46.4027 24.1586 -108.418
rradius 95.4876
rwrist 19.9744
rhand -35.0175 13.8814
rfingers 7.12502
rthumb -8.16164 -15.941
lclavicle -4.69008e-015 1.72943e-014
lhumerus -46.2859 -31.227 114.01
lradius 86.5336
lwrist 20.7058
lhand -12.7366 47.6031
lfingers 7.12502
lthumb 13.3471 797.156
rfemur -24.3833 -6.57669 36.3201
rtibia 35.9458
rfoot -21.3739 -8.77899
rtoes 1.76226
lfemur -39.9327 16.1723 -13.8405
ltibia 86.7501
lfoot -3.70504 3.65382
ltoes 19.7339
502
root -0.448838 16.7699 4.53953 235.641 82.3486 591.234
lowerback -5.33499 -1.44202 7.44396
upperback -0.351369 -2.36492 2.07168
thorax 2.41613 -1.083 -2.19356
lowerneck -14.0351 -10.6429 4.39168
upperneck 11.0889 54.0104 7.02998
head 211.848 -212.26 -363.708
rclavicle 1.78161e-014 -6.08281e-014
rhumerus -44.4069 25.4048 -110.074
rradius 94.8063
rwrist 20.3467
rhand -34.7322 13.9366
rfingers 7.12502
rthumb -7.88631 -15.8963
lclavicle 1.78161e-014 -6.08281e-014
lhumerus -48.0764 -30.2979 112.676
lradius 87.6376
lwrist 20.8264
lhand -12.0734 47.2686
lfingers 7.12502
lthumb 13.9862 796.778
rfemur -22.8022 -5.86527 35.4907
rtibia 36.2282
rfoot -21.2794 -9.05161
rtoes 0.591478
lfemur -40.7936 15.6358 -13.601
ltibia 85.2386
lfoot -3.96301 4.04268
ltoes 22.6338
503
root -0.339137 16.7571 4.50752 239.629 83.3843 596.19
lowerback -4.13589 -1.14432 6.52499
upperback 0.0706186 -1.84434 1.93193
thorax 2.25208 -0.836659 -1.76938
lowerneck -14.428 -10.4727 4.4665
upperneck 11.2678 54.4529 7.29699
head 212.012 -213.026 -363.902
rclavicle 8.03214e-015 -3.16068e-014
rhumerus -42.6615 26.631 -111.557
rradius 94.3597
rwrist 20.7145
rhand -34.1307 14.2026
rfingers 7.12502
rthumb -7.30576 -15.6513
lclavicle 8.03214e-015 -3.16068e-014
lhumerus -49.837 -29.6958 111.471
lradius 88.8336
lwrist 20.6837
lhand -11.989 47.3118
lfingers 7.12502
lthumb 14.0676 796.816
rfemur -21.3147 -5.17675 34.7965
rtibia 36.3987
rfoot -21.7897 -9.15207
rtoes 1.53736
lfemur -41.4518 15.3444 -13.3526
ltibia 83.0171
lfoot -4.58367 4.87085
ltoes 20.8118
504
root -0.228078 16.7514 4.47775 244.769 84.3942 602.299
lowerback -2.90698 -0.779963 5.52904
upperback 0.454702 -1.24529 1.77393
thorax 2.02149 -0.553266 -1.32777
lowerneck -14.8156 -10.5206 4.53134
upperneck 10.9802 54.16 7.11726
head 212.01 -213.179 -363.793
rclavicle 1.2716e-014 -2.46493e-014
rhumerus -41.4416 27.6378 -113.167
rradius 94.1528
rwrist 20.6502
rhand -34.2043 15.7549
rfingers 7.12502
rthumb -7.37679 -14.0965
lclavicle 1.2716e-014 -2.46493e-014
lhumerus -51.7839 -29.4224 110.41
lradius 90.2821
lwrist 20.4338
lhand -13.1437 47.2188
lfingers 7.12502
lthumb 12.9546 796.797
rfemur -19.7842 -4.44398 34.0527
rtibia 36.4991
rfoot -22.3605 -8.98341
rtoes 3.12885
lfemur -41.6966 15.3107 -13.2435
ltibia 79.987
lfoot -4.94657 6.12924
ltoes 21.1112
505
root -0.115355 16.7555 4.44542 248.699 85.384 607.402
lowerback -1.5839 -0.431243 4.03503
upperback 0.931888 -0.674756 1.86849
thorax 1.82141 -0.286766 -0.36329
lowerneck -15.1895 -10.4899 4.1994
upperneck 10.9543 54.3714 7.11365
head 212.107 -214.06 -363.787
rclavicle 2.41026e-015 -1.17283e-014
rhumerus -40.4996 29.2271 -114.317
rradius 93.9413
rwrist 20.4875
rhand -35.288 16.5257
rfingers 7.12502
rthumb -8.42274 -13.2864
lclavicle 2.41026e-015 -1.17283e-014
lhumerus -53.3818 -29.2032 109.759
lradius 91.7063
lwrist 20.1782
lhand -13.8112 47.0306
lfingers 7.12502
lthumb 12.3111 796.648
rfemur -17.9128 -3.85082 33.0616
rtibia 36.3845
rfoot -22.5891 -8.95452
rtoes 3.98332
lfemur -41.3715 15.1404 -13.3185
ltibia 76.1931
lfoot -4.48769 7.42163
ltoes 22.1318
506
root 0.00191826 16.7681 4.40709 248.709 86.5099 609.047
lowerback 0.444466 -0.0472238 2.51059
upperback 1.30846 -0.0586139 1.71878
thorax 1.09038 -0.00256185 0.353697
lowerneck -15.2674 -10.6779 3.96266
upperneck 11.0294 54.3287 7.22346
head 212.198 -214.856 -363.759
rclavicle 3.97569e-015 2.60408e-014
rhumerus -39.9086 30.7755 -115.481
rradius 93.6201
rwrist 20.3681
rhand -36.4625 15.4939
rfingers 7.12502
rthumb -9.55606 -14.2694
lclavicle 3.97569e-015 2.60408e-014
lhumerus -55.2593 -29.501 109.315
lradius 93.0084
lwrist 20.0429
lhand -13.8983 46.8079
lfingers 7.12502
lthumb 12.2272 796.43
rfemur -15.3227 -3.52207 31.6275
rtibia 35.8809
rfoot -22.7676 -9.10667
rtoes 4.50955
lfemur -39.8259 14.9979 -13.6542
ltibia 71.2063
lfoot -3.39919 7.3639
ltoes 22.3342
507
root 0.125503 16.7829 4.36479 246.786 87.0706 608.152
lowerback 2.0031 0.315443 1.57684
upperback 1.35179 0.470055 1.6427
thorax 0.260307 0.249523 0.790012
lowerneck -15.1661 -10.9422 3.68562
upperneck 11.1447 54.0905 7.39035
head 212.211 -215.648 -363.806
rclavicle 3.21783e-015 -1.82882e-014
rhumerus -39.8332 31.7911 -116.617
rradius 93.4475
rwrist 19.8741
rhand -35.9367 15.639
rfingers 7.12502
rthumb -9.04873 -14.1469
lclavicle 3.21783e-015 -1.82882e-014
lhumerus -57.3304 -30.2669 109.115
lradius 94.2124
lwrist 20.182
lhand -13.8517 46.9302
lfingers 7.12502
lthumb 12.2721 796.55
rfemur -13.3567 -3.2534 30.7534
rtibia 35.2811
rfoot -23.0118 -9.25198
rtoes 4.8548
lfemur -38.9298 14.9564 -13.7705
ltibia 66.1306
lfoot -2.40325 5.28168
ltoes 24.1268
508
root 0.249838 16.7959 4.30946 245.024 87.128 606.653
lowerback 2.78478 0.599668 1.27359
upperback 1.16642 0.866682 1.68007
thorax -0.372989 0.443838 0.980265
lowerneck -15.1665 -11.1311 3.25679
upperneck 11.2312 54.0007 7.51086
head 212.267 -216.719 -363.784
rclavicle -1.14177e-014 -6.16232e-015
rhumerus -40.2145 32.6573 -117.779
rradius 93.2821
rwrist 19.4995
rhand -34.9795 16.3287
rfingers 7.12502
rthumb -8.125 -13.4951
lclavicle -1.14177e-014 -6.16232e-015
lhumerus -59.1239 -30.9689 109.005
lradius 95.3538
lwrist 20.6274
lhand -13.2773 47.7106
lfingers 7.12502
lthumb 12.8259 797.297
rfemur -12.3533 -3.01271 30.4095
rtibia 34.8257
rfoot -23.2205 -9.33788
rtoes 5.11457
lfemur -38.803 15.0526 -13.7914
ltibia 61.0595
lfoot -1.054 3.22348
ltoes 25.1506
509
root 0.376649 16.8077 4.24955 243.006 87.0589 604.707
lowerback 3.24782 0.867952 1.12686
upperback 0.980103 1.23489 1.74084
thorax -0.83021 0.626292 1.10369
lowerneck -15.1356 -11.3506 2.8917
upperneck 11.4156 54.1216 7.69657
head 212.476 -217.904 -363.621
rclavicle -4.42917e-015 7.55382e-015
rhumerus -40.8068 33.4868 -118.867
rradius 92.8898
rwrist 19.4867
rhand -34.8649 16.5514
rfingers 7.12502
rthumb -8.01434 -13.2767
lclavicle -4.42917e-015 7.55382e-015
lhumerus -60.5647 -31.4144 108.907
lradius 96.4447
lwrist 20.9889
lhand -12.5371 48.0092
lfingers 7.12502
lthumb 13.5393 797.549
rfemur -11.5086 -2.68888 30.2159
rtibia 34.2802
rfoot -23.2399 -9.53522
rtoes 5.55846
lfemur -38.6194 15.23 -13.8944
ltibia 56.6389
lfoot -0.0618346 1.57056
ltoes 26.3561
